<?xml version="1.0" encoding="UTF-8" standalone="no"?>
<svg
   viewBox="0 0 200 200"
   height="200"
   width="200"
   version="1.1"
   id="svg141"
   sodipodi:docname="icon.svg"
   inkscape:version="1.2.1 (9c6d41e, 2022-07-14)"
   xmlns:inkscape="http://www.inkscape.org/namespaces/inkscape"
   xmlns:sodipodi="http://sodipodi.sourceforge.net/DTD/sodipodi-0.dtd"
   xmlns="http://www.w3.org/2000/svg"
   xmlns:svg="http://www.w3.org/2000/svg">
  <defs
     id="defs145" />
  <sodipodi:namedview
     id="namedview143"
     pagecolor="#ffffff"
     bordercolor="#000000"
     borderopacity="0.25"
     inkscape:showpageshadow="2"
     inkscape:pageopacity="0.0"
     inkscape:pagecheckerboard="0"
     inkscape:deskcolor="#d1d1d1"
     showgrid="false"
     inkscape:zoom="2.8238753"
     inkscape:cx="80.91717"
     inkscape:cy="138.28514"
     inkscape:window-width="1728"
     inkscape:window-height="1051"
     inkscape:window-x="0"
     inkscape:window-y="38"
     inkscape:window-maximized="1"
     inkscape:current-layer="svg141" />
  <g
     id="g139"
     transform="translate(1,55.7)">
    <svg
       version="1.1"
       x="0"
       y="0"
       viewBox="15.500001 34.299999 69.058365 31.270817"
       xml:space="preserve"
       height="89.792786"
       width="198.29808"
       class="icon-icon-0"
       data-fill-palette-color="accent"
       id="icon-0"><g
         fill="#4d7e3e"
         data-fill-palette-color="accent"
         id="g136"><path
           d="M 83.7,51.9 C 81.3,45.2 73.8,34.6 69.4,34.6 c 0,0 -0.1,0 -0.1,0 0,0 -0.1,0 -0.1,0 l -36.6,0.9 c 0.3,1.4 0.3,3 0.3,4.7 v 0.8 0.8 c 0,1.7 0,3.3 -0.3,4.7 L 50.5,47 c 0,0 0,0 0,0 h 1 l 2.8,0.1 c 0,0 0,0 0,0 l 9.3,0.2 c 0.8,0 1.5,0.7 1.5,1.5 0,0.8 -0.7,1.5 -1.5,1.5 0,0 0,0 0,0 l -8.3,-0.2 c -0.3,0.6 -0.5,1.2 -0.7,1.7 -2.1,5.8 -0.2,11.9 4.1,13.4 3,1.1 6.6,-0.3 9.3,-3.5 0.6,-0.7 1.7,-0.7 2.3,0 2.6,3.2 6.3,4.5 9.3,3.5 4.3,-1.4 6.2,-7.5 4.1,-13.3 z"
           fill="#4d7e3e"
           data-fill-palette-color="accent"
           id="path132" /><path
           d="m 29.1,47.2 c 0.8,-0.8 0.8,-3 0.8,-5.4 V 41 40.2 c 0,-2.3 0,-4.5 -0.8,-5.4 -0.1,-0.1 -0.5,-0.5 -1.9,-0.5 -4.2,0 -11.7,4.3 -11.7,6.7 0,2.4 7.6,6.7 11.7,6.7 1.4,0.1 1.8,-0.3 1.9,-0.5 z"
           fill="#4d7e3e"
           data-fill-palette-color="accent"
           id="path134" /></g></svg>
  </g>
</svg>
