<svg viewBox="0 0 553.7775600573624 200.99999999999997" height="143.5585797152292" width="395.52"><g><rect width="5.550194116261204" height="200.99999999999997" x="212.82738335467351" y="0" fill="#4d7e3e" opacity="1" stroke-width="0" stroke="transparent" fill-opacity="1" class="rect-o-0" data-fill-palette-color="primary" rx="1%" id="o-0" data-palette-color="#4d7e3e"></rect></g><g transform="matrix(1,0,0,1,232.90688144020487,0.4999999999999858)"><svg viewBox="0 0 320.8706786171575 200" height="200" width="320.8706786171575"><g><svg viewBox="0 0 320.8706786171575 200" height="200" width="320.8706786171575"><g><svg viewBox="0 0 320.8706786171575 200" height="200" width="320.8706786171575"><g transform="matrix(1,0,0,1,0,0)"><svg width="320.8706786171575" viewBox="0.6000003814697266 -35.650001525878906 189.6999969482422 114.1500015258789" height="200" data-palette-color="#4d7e3e"><svg></svg><svg></svg><svg></svg><g class="undefined-text-0" data-fill-palette-color="primary" id="text-0"><path d="M17 0h-4.15v-31.75h-12.25v-3.5h28.7v3.5h-12.3zM70.15-5.75l10.1-29.5h4l-12.3 35.25h-3.5l-10.05-28.85-10.05 28.85h-3.45l-12.35-35.25h4.15l10 29.45 10.25-29.45 3.1 0.05zM104.25 0.4c-3.267 0-6.107-0.733-8.52-2.2-2.42-1.467-4.28-3.55-5.58-6.25-1.3-2.7-1.95-5.883-1.95-9.55v0c0-3.7 0.643-6.91 1.93-9.63 1.28-2.713 3.13-4.797 5.55-6.25 2.413-1.447 5.27-2.17 8.57-2.17v0c3.3 0 6.16 0.723 8.58 2.17 2.413 1.453 4.263 3.537 5.55 6.25 1.28 2.72 1.92 5.913 1.92 9.58v0c0 3.667-0.65 6.857-1.95 9.57-1.3 2.72-3.157 4.813-5.57 6.28-2.42 1.467-5.263 2.2-8.53 2.2zM104.25-3.1c3.733 0 6.643-1.26 8.73-3.78 2.08-2.513 3.12-6.103 3.12-10.77v0c0-4.667-1.033-8.25-3.1-10.75-2.067-2.5-4.983-3.75-8.75-3.75v0c-3.733 0-6.64 1.257-8.72 3.77-2.087 2.52-3.13 6.097-3.13 10.73v0c0 4.633 1.043 8.217 3.13 10.75 2.08 2.533 4.987 3.8 8.72 3.8z" data-fill-palette-color="primary" fill="#4d7e3e" opacity="1"></path><path d="M15.55 39.45c-5.5 0-9.9-1.483-13.2-4.45v0l1.6-3.15c1.733 1.467 3.51 2.517 5.33 3.15 1.813 0.633 3.92 0.95 6.32 0.95v0c2.833 0 5.017-0.55 6.55-1.65 1.533-1.1 2.3-2.65 2.3-4.65v0c0-1.167-0.367-2.117-1.1-2.85-0.733-0.733-1.7-1.317-2.9-1.75-1.2-0.433-2.817-0.883-4.85-1.35v0c-2.733-0.633-4.973-1.3-6.72-2-1.753-0.7-3.17-1.7-4.25-3-1.087-1.3-1.63-3-1.63-5.1v0c0-2 0.527-3.777 1.58-5.33 1.047-1.547 2.547-2.747 4.5-3.6 1.947-0.847 4.203-1.27 6.77-1.27v0c2.433 0 4.71 0.383 6.83 1.15 2.113 0.767 3.903 1.867 5.37 3.3v0l-1.55 3.15c-1.667-1.433-3.357-2.477-5.07-3.13-1.72-0.647-3.58-0.97-5.58-0.97v0c-2.733 0-4.873 0.573-6.42 1.72-1.553 1.153-2.33 2.763-2.33 4.83v0c0 1.767 0.683 3.1 2.05 4 1.367 0.9 3.433 1.667 6.2 2.3v0c3.033 0.733 5.417 1.407 7.15 2.02 1.733 0.62 3.177 1.547 4.33 2.78 1.147 1.233 1.72 2.883 1.72 4.95v0c0 2-0.523 3.75-1.57 5.25-1.053 1.5-2.563 2.657-4.53 3.47-1.967 0.82-4.267 1.23-6.9 1.23zM47.1 39.05h-4.15v-31.75h-12.25v-3.5h28.7v3.5h-12.3zM85.95 27.55l6.15 11.5h-4.5l-6-11.3c-0.733-1.367-1.59-2.31-2.57-2.83-0.987-0.513-2.33-0.77-4.03-0.77v0h-6.6v14.9h-4.05v-35.25h14.5c3.833 0 6.76 0.85 8.78 2.55 2.013 1.7 3.02 4.2 3.02 7.5v0c0 2.733-0.773 4.943-2.32 6.63-1.553 1.68-3.763 2.737-6.63 3.17v0c0.9 0.267 1.693 0.717 2.38 1.35 0.68 0.633 1.303 1.483 1.87 2.55zM68.4 20.75h10.1c2.733 0 4.777-0.567 6.13-1.7 1.347-1.133 2.02-2.85 2.02-5.15v0c0-2.267-0.667-3.95-2-5.05-1.333-1.1-3.383-1.65-6.15-1.65v0h-10.1zM113.15 39.45c-3.267 0-6.107-0.733-8.52-2.2-2.42-1.467-4.28-3.55-5.58-6.25-1.3-2.7-1.95-5.883-1.95-9.55v0c0-3.7 0.643-6.91 1.93-9.63 1.28-2.713 3.13-4.797 5.55-6.25 2.413-1.447 5.27-2.17 8.57-2.17v0c3.3 0 6.16 0.723 8.58 2.17 2.413 1.453 4.263 3.537 5.55 6.25 1.28 2.72 1.92 5.913 1.92 9.58v0c0 3.667-0.65 6.857-1.95 9.57-1.3 2.72-3.157 4.813-5.57 6.28-2.42 1.467-5.263 2.2-8.53 2.2zM113.15 35.95c3.733 0 6.643-1.26 8.73-3.78 2.08-2.513 3.12-6.103 3.12-10.77v0c0-4.667-1.033-8.25-3.1-10.75-2.067-2.5-4.983-3.75-8.75-3.75v0c-3.733 0-6.64 1.257-8.72 3.77-2.087 2.52-3.13 6.097-3.13 10.73v0c0 4.633 1.043 8.217 3.13 10.75 2.08 2.533 4.987 3.8 8.72 3.8zM144.8 20.95l19.35 18.1h-5.3l-18.15-16.75v16.75h-4.1v-35.25h4.1v16.2l17.3-16.2h5.2zM190.3 39.05h-22.3v-35.25h22.3v3.4h-18.25v12.25h17.25v3.4h-17.25v12.8h18.25z" data-fill-palette-color="primary" fill="#4d7e3e" opacity="1"></path><path d="M17 78.1h-4.15v-31.75h-12.25v-3.5h28.7v3.5h-12.3zM46.8 78.5c-3.267 0-6.107-0.733-8.52-2.2-2.42-1.467-4.28-3.55-5.58-6.25-1.3-2.7-1.95-5.883-1.95-9.55v0c0-3.7 0.643-6.91 1.93-9.63 1.28-2.713 3.13-4.797 5.55-6.25 2.413-1.447 5.27-2.17 8.57-2.17v0c3.3 0 6.16 0.723 8.58 2.17 2.413 1.453 4.263 3.537 5.55 6.25 1.28 2.72 1.92 5.913 1.92 9.58v0c0 3.667-0.65 6.857-1.95 9.57-1.3 2.72-3.157 4.813-5.57 6.28-2.42 1.467-5.263 2.2-8.53 2.2zM46.8 75c3.733 0 6.643-1.26 8.73-3.78 2.08-2.513 3.12-6.103 3.12-10.77v0c0-4.667-1.033-8.25-3.1-10.75-2.067-2.5-4.983-3.75-8.75-3.75v0c-3.733 0-6.64 1.257-8.72 3.77-2.087 2.52-3.13 6.097-3.13 10.73v0c0 4.633 1.043 8.217 3.13 10.75 2.08 2.533 4.987 3.8 8.72 3.8zM87 68.4l13.2-25.55h3.35v35.25h-3.75l0.05-27.3-11.45 21.7h-2.9l-11.5-21.5 0.05 27.1h-3.8v-35.25h3.4z" data-fill-palette-color="primary" fill="#4d7e3e" opacity="1"></path></g></svg></g></svg></g></svg></g></svg></g><g transform="matrix(1,0,0,1,0,55.60360747259686)"><svg viewBox="0 0 198.29807938540335 89.79278505480625" height="89.79278505480625" width="198.29807938540335"><g><svg xmlns="http://www.w3.org/2000/svg" xmlns:xlink="http://www.w3.org/1999/xlink" version="1.1" x="0" y="0" viewBox="15.500000953674316 34.29999923706055 69.05836486816406 31.270816802978516" style="enable-background:new 0 0 100 100;" xml:space="preserve" height="89.79278505480625" width="198.29807938540335" class="icon-icon-0" data-fill-palette-color="accent" id="icon-0"><g fill="#4d7e3e" data-fill-palette-color="accent"><path d="M83.7 51.9c-2.4-6.7-9.9-17.3-14.3-17.3 0 0-0.1 0-0.1 0 0 0-0.1 0-0.1 0l-36.6 0.9c0.3 1.4 0.3 3 0.3 4.7l0 0.8 0 0.8c0 1.7 0 3.3-0.3 4.7L50.5 47c0 0 0 0 0 0l1 0 2.8 0.1c0 0 0 0 0 0l9.3 0.2c0.8 0 1.5 0.7 1.5 1.5 0 0.8-0.7 1.5-1.5 1.5 0 0 0 0 0 0l-8.3-0.2c-0.3 0.6-0.5 1.2-0.7 1.7-2.1 5.8-0.2 11.9 4.1 13.4 3 1.1 6.6-0.3 9.3-3.5 0.6-0.7 1.7-0.7 2.3 0 2.6 3.2 6.3 4.5 9.3 3.5C83.9 63.8 85.8 57.7 83.7 51.9z" fill="#4d7e3e" data-fill-palette-color="accent"></path><path d="M29.1 47.2c0.8-0.8 0.8-3 0.8-5.4l0-0.8 0-0.8c0-2.3 0-4.5-0.8-5.4-0.1-0.1-0.5-0.5-1.9-0.5-4.2 0-11.7 4.3-11.7 6.7s7.6 6.7 11.7 6.7C28.6 47.8 29 47.4 29.1 47.2z" fill="#4d7e3e" data-fill-palette-color="accent"></path></g></svg></g></svg></g></svg>