<svg viewBox="0 0 198.29807938540335 89.79278505480625" height="89.79278505480625" width="198.29807938540335"><g><svg xmlns="http://www.w3.org/2000/svg" xmlns:xlink="http://www.w3.org/1999/xlink" version="1.1" x="0" y="0" viewBox="15.500000953674316 34.29999923706055 69.05836486816406 31.270816802978516" style="enable-background:new 0 0 100 100;" xml:space="preserve" height="89.79278505480625" width="198.29807938540335" class="icon-icon-0" data-fill-palette-color="accent" id="icon-0"><g fill="#4d7e3e" data-fill-palette-color="accent"><path d="M83.7 51.9c-2.4-6.7-9.9-17.3-14.3-17.3 0 0-0.1 0-0.1 0 0 0-0.1 0-0.1 0l-36.6 0.9c0.3 1.4 0.3 3 0.3 4.7l0 0.8 0 0.8c0 1.7 0 3.3-0.3 4.7L50.5 47c0 0 0 0 0 0l1 0 2.8 0.1c0 0 0 0 0 0l9.3 0.2c0.8 0 1.5 0.7 1.5 1.5 0 0.8-0.7 1.5-1.5 1.5 0 0 0 0 0 0l-8.3-0.2c-0.3 0.6-0.5 1.2-0.7 1.7-2.1 5.8-0.2 11.9 4.1 13.4 3 1.1 6.6-0.3 9.3-3.5 0.6-0.7 1.7-0.7 2.3 0 2.6 3.2 6.3 4.5 9.3 3.5C83.9 63.8 85.8 57.7 83.7 51.9z" fill="#4d7e3e" data-fill-palette-color="accent"></path><path d="M29.1 47.2c0.8-0.8 0.8-3 0.8-5.4l0-0.8 0-0.8c0-2.3 0-4.5-0.8-5.4-0.1-0.1-0.5-0.5-1.9-0.5-4.2 0-11.7 4.3-11.7 6.7s7.6 6.7 11.7 6.7C28.6 47.8 29 47.4 29.1 47.2z" fill="#4d7e3e" data-fill-palette-color="accent"></path></g></svg></g></svg>